<mxfile host="app.diagrams.net" modified="2024-01-13T07:46:42.989Z" agent="Mozilla/5.0 (Macintosh; Intel Mac OS X 10_15_7) AppleWebKit/537.36 (KHTML, like Gecko) Chrome/120.0.0.0 Safari/537.36" etag="PxXA8mdcKWiYBXlLpibe" version="22.1.18" type="github">
  <diagram name="Page-1" id="kJk3HcC8zpoeqWfBMdxJ">
    <mxGraphModel dx="956" dy="507" grid="1" gridSize="10" guides="1" tooltips="1" connect="1" arrows="1" fold="1" page="1" pageScale="1" pageWidth="827" pageHeight="1169" math="0" shadow="0">
      <root>
        <mxCell id="0" />
        <mxCell id="1" parent="0" />
        <mxCell id="dHpgYmdZ4-A-0RYmeYYr-1" value="Raspberry-Pi" style="rounded=0;whiteSpace=wrap;html=1;shadow=0;glass=0;verticalAlign=top;" vertex="1" parent="1">
          <mxGeometry x="410" y="190" width="220" height="220" as="geometry" />
        </mxCell>
        <mxCell id="dHpgYmdZ4-A-0RYmeYYr-14" style="edgeStyle=orthogonalEdgeStyle;rounded=0;orthogonalLoop=1;jettySize=auto;html=1;exitX=1;exitY=0.5;exitDx=0;exitDy=0;entryX=1;entryY=0.5;entryDx=0;entryDy=0;" edge="1" parent="1" source="dHpgYmdZ4-A-0RYmeYYr-2" target="dHpgYmdZ4-A-0RYmeYYr-13">
          <mxGeometry relative="1" as="geometry" />
        </mxCell>
        <mxCell id="dHpgYmdZ4-A-0RYmeYYr-2" value="mypi-router (docker)" style="rounded=0;whiteSpace=wrap;html=1;verticalAlign=top;" vertex="1" parent="1">
          <mxGeometry x="420" y="220" width="170" height="70" as="geometry" />
        </mxCell>
        <mxCell id="dHpgYmdZ4-A-0RYmeYYr-3" value="mypi-debug (docker)" style="rounded=0;whiteSpace=wrap;html=1;verticalAlign=top;" vertex="1" parent="1">
          <mxGeometry x="420" y="300" width="180" height="90" as="geometry" />
        </mxCell>
        <mxCell id="dHpgYmdZ4-A-0RYmeYYr-5" value="10443" style="rounded=0;whiteSpace=wrap;html=1;fillColor=#dae8fc;strokeColor=#6c8ebf;" vertex="1" parent="1">
          <mxGeometry x="420" y="245" width="50" height="20" as="geometry" />
        </mxCell>
        <mxCell id="dHpgYmdZ4-A-0RYmeYYr-9" style="edgeStyle=orthogonalEdgeStyle;rounded=0;orthogonalLoop=1;jettySize=auto;html=1;exitX=1;exitY=0.5;exitDx=0;exitDy=0;entryX=0;entryY=0.5;entryDx=0;entryDy=0;" edge="1" parent="1" source="dHpgYmdZ4-A-0RYmeYYr-7" target="dHpgYmdZ4-A-0RYmeYYr-5">
          <mxGeometry relative="1" as="geometry">
            <Array as="points">
              <mxPoint x="610" y="115" />
              <mxPoint x="610" y="160" />
              <mxPoint x="380" y="160" />
              <mxPoint x="380" y="255" />
            </Array>
          </mxGeometry>
        </mxCell>
        <mxCell id="dHpgYmdZ4-A-0RYmeYYr-7" value="DSL Router" style="rounded=0;whiteSpace=wrap;html=1;" vertex="1" parent="1">
          <mxGeometry x="420" y="100" width="170" height="30" as="geometry" />
        </mxCell>
        <mxCell id="dHpgYmdZ4-A-0RYmeYYr-8" value="443" style="rounded=0;whiteSpace=wrap;html=1;fillColor=#dae8fc;strokeColor=#6c8ebf;" vertex="1" parent="1">
          <mxGeometry x="420" y="105" width="50" height="20" as="geometry" />
        </mxCell>
        <mxCell id="dHpgYmdZ4-A-0RYmeYYr-11" value="sshd" style="rounded=0;whiteSpace=wrap;html=1;" vertex="1" parent="1">
          <mxGeometry x="470" y="330" width="80" height="40" as="geometry" />
        </mxCell>
        <mxCell id="dHpgYmdZ4-A-0RYmeYYr-12" value="2022" style="rounded=0;whiteSpace=wrap;html=1;fillColor=#dae8fc;strokeColor=#6c8ebf;" vertex="1" parent="1">
          <mxGeometry x="420" y="340" width="50" height="20" as="geometry" />
        </mxCell>
        <mxCell id="dHpgYmdZ4-A-0RYmeYYr-13" value="8443" style="rounded=0;whiteSpace=wrap;html=1;fillColor=#ffe6cc;strokeColor=#d79b00;" vertex="1" parent="1">
          <mxGeometry x="550" y="340" width="50" height="20" as="geometry" />
        </mxCell>
        <mxCell id="dHpgYmdZ4-A-0RYmeYYr-17" value="Developer Notebook/PC" style="rounded=0;whiteSpace=wrap;html=1;verticalAlign=top;" vertex="1" parent="1">
          <mxGeometry x="60" y="50" width="280" height="410" as="geometry" />
        </mxCell>
        <mxCell id="dHpgYmdZ4-A-0RYmeYYr-19" style="edgeStyle=orthogonalEdgeStyle;rounded=0;orthogonalLoop=1;jettySize=auto;html=1;exitX=1;exitY=0.5;exitDx=0;exitDy=0;entryX=0;entryY=0.5;entryDx=0;entryDy=0;" edge="1" parent="1" source="dHpgYmdZ4-A-0RYmeYYr-18" target="dHpgYmdZ4-A-0RYmeYYr-8">
          <mxGeometry relative="1" as="geometry" />
        </mxCell>
        <mxCell id="dHpgYmdZ4-A-0RYmeYYr-30" style="edgeStyle=orthogonalEdgeStyle;rounded=0;orthogonalLoop=1;jettySize=auto;html=1;exitX=1;exitY=0.75;exitDx=0;exitDy=0;entryX=1;entryY=0.5;entryDx=0;entryDy=0;" edge="1" parent="1" source="dHpgYmdZ4-A-0RYmeYYr-18" target="dHpgYmdZ4-A-0RYmeYYr-29">
          <mxGeometry relative="1" as="geometry">
            <mxPoint x="320" y="310" as="targetPoint" />
          </mxGeometry>
        </mxCell>
        <mxCell id="dHpgYmdZ4-A-0RYmeYYr-18" value="Browser" style="rounded=0;whiteSpace=wrap;html=1;" vertex="1" parent="1">
          <mxGeometry x="80" y="85" width="220" height="60" as="geometry" />
        </mxCell>
        <mxCell id="dHpgYmdZ4-A-0RYmeYYr-20" value="mypi-debug (golang)" style="rounded=0;whiteSpace=wrap;html=1;verticalAlign=top;" vertex="1" parent="1">
          <mxGeometry x="80" y="270" width="220" height="180" as="geometry" />
        </mxCell>
        <mxCell id="dHpgYmdZ4-A-0RYmeYYr-23" style="edgeStyle=orthogonalEdgeStyle;rounded=0;orthogonalLoop=1;jettySize=auto;html=1;exitX=0.5;exitY=0;exitDx=0;exitDy=0;exitPerimeter=0;" edge="1" parent="1" source="dHpgYmdZ4-A-0RYmeYYr-21" target="dHpgYmdZ4-A-0RYmeYYr-12">
          <mxGeometry relative="1" as="geometry" />
        </mxCell>
        <mxCell id="dHpgYmdZ4-A-0RYmeYYr-36" value="" style="edgeStyle=orthogonalEdgeStyle;rounded=0;orthogonalLoop=1;jettySize=auto;html=1;" edge="1" parent="1" source="dHpgYmdZ4-A-0RYmeYYr-21" target="dHpgYmdZ4-A-0RYmeYYr-34">
          <mxGeometry relative="1" as="geometry" />
        </mxCell>
        <mxCell id="dHpgYmdZ4-A-0RYmeYYr-21" value="" style="shape=cylinder3;whiteSpace=wrap;html=1;boundedLbl=1;backgroundOutline=1;size=15;rotation=90;" vertex="1" parent="1">
          <mxGeometry x="335" y="305" width="40" height="90" as="geometry" />
        </mxCell>
        <mxCell id="dHpgYmdZ4-A-0RYmeYYr-25" value="" style="shape=flexArrow;endArrow=classic;startArrow=classic;html=1;rounded=0;" edge="1" parent="1">
          <mxGeometry width="100" height="100" relative="1" as="geometry">
            <mxPoint x="310" y="350" as="sourcePoint" />
            <mxPoint x="370" y="350" as="targetPoint" />
          </mxGeometry>
        </mxCell>
        <mxCell id="dHpgYmdZ4-A-0RYmeYYr-27" value="VSCode" style="rounded=0;whiteSpace=wrap;html=1;verticalAlign=top;" vertex="1" parent="1">
          <mxGeometry x="80" y="160" width="220" height="100" as="geometry" />
        </mxCell>
        <mxCell id="dHpgYmdZ4-A-0RYmeYYr-29" value="rnd" style="rounded=0;whiteSpace=wrap;html=1;fillColor=#dae8fc;strokeColor=#6c8ebf;" vertex="1" parent="1">
          <mxGeometry x="260" y="300" width="40" height="20" as="geometry" />
        </mxCell>
        <mxCell id="dHpgYmdZ4-A-0RYmeYYr-31" value="mypi-tool&lt;br&gt;(golang, debug)" style="rounded=0;whiteSpace=wrap;html=1;" vertex="1" parent="1">
          <mxGeometry x="110" y="190" width="170" height="60" as="geometry" />
        </mxCell>
        <mxCell id="dHpgYmdZ4-A-0RYmeYYr-43" style="edgeStyle=orthogonalEdgeStyle;rounded=0;orthogonalLoop=1;jettySize=auto;html=1;exitX=0;exitY=0.25;exitDx=0;exitDy=0;entryX=0;entryY=0.5;entryDx=0;entryDy=0;" edge="1" parent="1" source="dHpgYmdZ4-A-0RYmeYYr-33" target="dHpgYmdZ4-A-0RYmeYYr-38">
          <mxGeometry relative="1" as="geometry" />
        </mxCell>
        <mxCell id="dHpgYmdZ4-A-0RYmeYYr-46" style="edgeStyle=orthogonalEdgeStyle;rounded=0;orthogonalLoop=1;jettySize=auto;html=1;exitX=0;exitY=0.75;exitDx=0;exitDy=0;entryX=0;entryY=0.5;entryDx=0;entryDy=0;" edge="1" parent="1" source="dHpgYmdZ4-A-0RYmeYYr-33" target="dHpgYmdZ4-A-0RYmeYYr-45">
          <mxGeometry relative="1" as="geometry" />
        </mxCell>
        <mxCell id="dHpgYmdZ4-A-0RYmeYYr-33" value="mypi-router&amp;nbsp; &amp;nbsp; &amp;nbsp; &amp;nbsp;" style="rounded=0;whiteSpace=wrap;html=1;" vertex="1" parent="1">
          <mxGeometry x="110" y="330" width="170" height="40" as="geometry" />
        </mxCell>
        <mxCell id="dHpgYmdZ4-A-0RYmeYYr-34" value="rnd" style="rounded=0;whiteSpace=wrap;html=1;fillColor=#ffe6cc;strokeColor=#d79b00;" vertex="1" parent="1">
          <mxGeometry x="240" y="340" width="40" height="20" as="geometry" />
        </mxCell>
        <mxCell id="dHpgYmdZ4-A-0RYmeYYr-37" value="mypi-tool&lt;br&gt;(golang + web)" style="rounded=0;whiteSpace=wrap;html=1;" vertex="1" parent="1">
          <mxGeometry x="110" y="380" width="170" height="60" as="geometry" />
        </mxCell>
        <mxCell id="dHpgYmdZ4-A-0RYmeYYr-38" value="rnd" style="rounded=0;whiteSpace=wrap;html=1;fillColor=#dae8fc;strokeColor=#6c8ebf;" vertex="1" parent="1">
          <mxGeometry x="110" y="210" width="40" height="20" as="geometry" />
        </mxCell>
        <mxCell id="dHpgYmdZ4-A-0RYmeYYr-45" value="rnd" style="rounded=0;whiteSpace=wrap;html=1;fillColor=#dae8fc;strokeColor=#6c8ebf;" vertex="1" parent="1">
          <mxGeometry x="110" y="400" width="40" height="20" as="geometry" />
        </mxCell>
      </root>
    </mxGraphModel>
  </diagram>
</mxfile>
